<?xml version="1.0" standalone="no"?>
<!DOCTYPE svg PUBLIC "-//W3C//DTD SVG 20010904//EN"
 "http://www.w3.org/TR/2001/REC-SVG-20010904/DTD/svg10.dtd">
<svg version="1.0" xmlns="http://www.w3.org/2000/svg"
 width="257.000000pt" height="92.000000pt" viewBox="0 0 257.000000 92.000000"
 preserveAspectRatio="xMidYMid meet">
<metadata>
Created by potrace 1.10, written by Peter Selinger 2001-2011
</metadata>
<g transform="translate(0.000000,92.000000) scale(0.100000,-0.100000)"
fill="#000000" stroke="none">
<path d="M10 456 c0 -297 3 -456 10 -456 6 0 10 6 10 14 0 12 7 12 38 4 23 -7
111 -9 239 -5 112 3 203 2 203 -2 0 -8 105 3 135 15 46 17 138 88 166 127 68
93 98 179 103 292 7 184 -95 359 -254 434 -55 26 -56 26 -352 29 l-298 3 0
-455z m617 393 c44 -17 74 -38 124 -89 55 -56 70 -78 92 -141 34 -98 40 -164
23 -248 -25 -118 -92 -223 -177 -277 -76 -47 -124 -54 -396 -54 l-253 0 0 415
0 415 265 0 c246 0 268 -2 322 -21z"/>
<path d="M85 455 l0 -375 231 0 c254 0 290 6 367 58 51 36 107 115 132 187 25
74 23 201 -4 273 -42 110 -127 196 -221 222 -19 5 -141 10 -270 10 l-235 0 0
-375z m507 323 c90 -27 176 -141 199 -262 25 -139 -43 -295 -159 -364 l-47
-27 -232 -3 -233 -3 0 335 0 336 216 0 c139 0 231 -4 256 -12z"/>
<path d="M165 455 l0 -295 193 0 c210 0 240 6 296 58 67 63 99 142 98 241 -1
118 -51 213 -137 262 l-50 29 -200 0 -200 0 0 -295z m419 241 c130 -54 170
-292 70 -423 -49 -64 -82 -73 -279 -73 l-175 0 0 255 0 255 175 0 c127 0 185
-4 209 -14z"/>
<path d="M250 675 c0 0 -2 -98 -3 -218 l-2 -218 164 3 163 3 38 42 c47 53 64
113 57 199 -4 51 -11 76 -33 107 -57 80 -68 82 -384 82z m300 -53 c95 -47 110
-238 24 -317 -26 -24 -32 -25 -160 -25 l-134 0 0 180 0 180 118 0 c91 0 125
-4 152 -18z"/>
<path d="M1004 894 c3 -9 6 -213 6 -455 0 -382 2 -439 15 -439 13 0 15 56 17
424 l3 424 260 -424 c217 -354 264 -424 282 -424 27 0 60 -60 -287 508 -230
376 -247 401 -274 402 -22 0 -27 -4 -22 -16z"/>
<path d="M1109 893 c6 -10 131 -214 278 -453 218 -353 273 -436 292 -438 13
-2 22 0 20 5 -2 5 -98 162 -213 349 -115 186 -239 387 -275 446 -53 86 -71
108 -89 108 -19 0 -21 -3 -13 -17z"/>
<path d="M1427 528 c129 -211 255 -416 280 -455 35 -58 49 -73 69 -73 23 0 23
1 -20 67 -23 38 -150 242 -280 456 -202 329 -241 387 -261 387 -20 0 4 -44
212 -382z"/>
<path d="M1290 907 c0 -3 124 -207 275 -453 238 -389 278 -449 300 -451 l25
-2 0 455 c0 447 0 454 -20 454 -20 0 -20 -7 -21 -427 0 -236 -3 -421 -6 -413
-4 8 -41 71 -83 140 -441 722 -424 695 -448 698 -12 2 -22 1 -22 -1z m575
-867 c3 -5 1 -10 -4 -10 -6 0 -11 5 -11 10 0 6 2 10 4 10 3 0 8 -4 11 -10z"/>
<path d="M1610 710 c0 -170 3 -204 18 -234 9 -20 19 -36 22 -36 3 0 4 106 2
235 -3 226 -3 235 -22 235 -19 0 -20 -8 -20 -200z"/>
<path d="M1690 643 c1 -245 3 -271 20 -303 l19 -35 1 303 c0 295 0 302 -20
302 -20 0 -20 -7 -20 -267z"/>
<path d="M1770 578 c1 -309 2 -336 20 -368 l19 -35 1 368 c0 360 0 367 -20
367 -20 0 -20 -7 -20 -332z"/>
<path d="M1970 890 c0 -20 7 -20 300 -20 293 0 300 0 300 20 0 20 -7 20 -300
20 -293 0 -300 0 -300 -20z"/>
<path d="M1970 810 c0 -20 7 -20 300 -20 293 0 300 0 300 20 0 20 -7 20 -300
20 -293 0 -300 0 -300 -20z"/>
<path d="M1970 730 c0 -18 7 -20 85 -20 l85 0 0 -355 c0 -309 2 -355 15 -355
13 0 15 46 15 355 0 348 0 355 20 355 20 0 20 -7 20 -355 0 -348 0 -355 20
-355 20 0 20 7 20 355 0 348 0 355 20 355 20 0 20 -7 20 -355 0 -348 0 -355
20 -355 20 0 20 7 20 355 0 348 0 355 20 355 20 0 20 -7 20 -355 0 -348 0
-355 20 -355 20 0 20 7 20 355 l0 355 80 0 c73 0 80 2 80 20 0 20 -7 20 -300
20 -293 0 -300 0 -300 -20z"/>
<path d="M1084 693 c3 -21 6 -185 6 -365 0 -285 2 -328 15 -328 23 0 22 657 0
700 -21 41 -29 38 -21 -7z"/>
<path d="M1160 303 c0 -296 0 -303 20 -303 20 0 20 7 20 273 0 255 -1 274 -20
302 l-20 30 0 -302z"/>
<path d="M1240 238 c0 -231 1 -238 20 -238 19 0 20 7 20 205 0 187 -2 207 -20
237 l-20 33 0 -237z"/>
</g>
</svg>
