<?xml version="1.0" standalone="no"?>
<!DOCTYPE svg PUBLIC "-//W3C//DTD SVG 20010904//EN"
 "http://www.w3.org/TR/2001/REC-SVG-20010904/DTD/svg10.dtd">
<svg version="1.0" xmlns="http://www.w3.org/2000/svg"
 width="200.000000pt" height="200.000000pt" viewBox="0 0 200.000000 200.000000"
 preserveAspectRatio="xMidYMid meet">

<g transform="translate(0.000000,200.000000) scale(0.100000,-0.100000)"
fill="#000000" stroke="none">
<path d="M0 1000 l0 -1000 176 0 c159 0 174 1 160 16 -9 8 -16 27 -16 41 0 21
67 197 226 598 3 6 -12 17 -33 24 -148 52 -260 193 -271 341 -11 161 114 495
258 689 103 139 212 224 340 268 l65 22 -452 1 -453 0 0 -1000z"/>
<path d="M1136 1986 c132 -41 291 -176 393 -331 103 -158 195 -377 222 -531
32 -184 -53 -343 -228 -426 -37 -18 -69 -33 -70 -34 -2 0 49 -131 112 -290 63
-159 115 -301 115 -316 0 -15 -7 -34 -16 -42 -14 -15 1 -16 160 -16 l176 0 0
1000 0 1000 -452 -1 c-382 0 -447 -2 -412 -13z"/>
<path d="M597 1083 c-4 -3 -7 -17 -7 -29 0 -30 94 -76 216 -105 75 -18 109
-20 219 -16 138 5 211 22 325 73 54 24 61 30 58 53 -4 35 -26 33 -158 -15 -92
-32 -119 -38 -221 -42 -134 -5 -233 12 -338 59 -66 30 -83 34 -94 22z"/>
<path d="M682 633 c-5 -10 -60 -148 -122 -308 -63 -160 -120 -298 -128 -307
-14 -17 14 -18 568 -18 536 0 581 1 569 16 -7 9 -68 154 -134 323 l-121 306
-312 3 c-289 2 -312 1 -320 -15z"/>
</g>
</svg>
